<?xml version="1.0" standalone="no"?>
<!DOCTYPE svg PUBLIC "-//W3C//DTD SVG 20010904//EN"
 "http://www.w3.org/TR/2001/REC-SVG-20010904/DTD/svg10.dtd">
<svg version="1.0" xmlns="http://www.w3.org/2000/svg"
 width="128.000000pt" height="81.000000pt" viewBox="0 0 128.000000 81.000000"
 preserveAspectRatio="xMidYMid meet">

<g transform="translate(0.000000,81.000000) scale(0.100000,-0.100000)"
fill="#000000" stroke="none">
<path d="M188 733 c-39 -4 -72 -40 -62 -66 3 -9 -6 -17 -28 -23 -32 -10 -33
-11 -34 -69 -1 -54 1 -63 28 -88 28 -26 35 -28 103 -25 77 3 105 -8 105 -42 0
-28 32 -78 58 -89 29 -14 42 -14 42 -1 0 6 -9 10 -19 10 -20 0 -51 24 -51 40
0 38 101 55 108 18 3 -14 -3 -16 -35 -12 l-38 5 33 -15 c65 -30 46 -81 -31
-81 -49 0 -58 -18 -34 -69 8 -17 25 -52 38 -78 14 -30 29 -48 39 -48 34 0 100
45 100 68 0 6 7 13 16 16 11 4 14 13 11 27 -4 15 0 23 12 26 10 3 24 16 32 29
l13 25 15 -28 c13 -25 15 -26 19 -8 7 33 22 42 22 12 0 -36 27 -36 33 1 l4 27
2 -27 c0 -16 5 -28 10 -28 5 0 7 9 4 20 -3 11 0 20 6 20 6 0 10 -3 10 -7 -3
-18 2 -33 10 -33 5 0 12 12 14 28 l4 27 2 -27 c0 -16 5 -28 11 -28 5 0 7 6 4
14 -3 8 -1 17 4 20 5 3 12 -3 15 -14 7 -26 43 -22 58 7 11 21 13 21 25 5 7 -9
14 -12 14 -5 0 19 100 37 210 38 62 0 105 4 106 10 0 6 6 22 14 37 26 54 -6
78 -79 59 -25 -6 -89 -14 -141 -17 -73 -4 -99 -10 -114 -24 -17 -17 -17 -19
-1 -44 17 -25 17 -26 -3 -26 -12 0 -26 8 -31 18 -10 16 -10 16 -11 0 0 -11 -8
-18 -20 -18 -16 0 -20 7 -20 35 0 19 -4 35 -10 35 -5 0 -10 -16 -10 -35 0 -35
0 -35 -44 -35 -47 0 -67 20 -45 46 9 11 8 14 -5 14 -9 0 -16 -4 -16 -10 0 -5
-14 -10 -31 -10 -19 0 -28 -4 -23 -11 3 -6 17 -8 30 -5 17 5 24 2 24 -9 0 -21
-76 -21 -88 0 -7 14 -11 13 -27 -5 -10 -11 -24 -20 -30 -20 -7 0 -15 -7 -19
-15 -3 -8 -12 -15 -21 -15 -12 0 -15 13 -15 65 l0 65 37 0 c20 0 45 -7 55 -17
10 -9 18 -11 18 -6 0 6 14 26 32 44 18 21 32 46 34 65 2 28 -1 33 -27 38 -20
4 -29 11 -29 25 0 11 -8 22 -18 26 -13 4 -23 23 -31 60 -7 30 -17 58 -23 61
-5 4 -44 8 -87 11 -63 3 -108 7 -130 12 -2 1 2 8 9 16 11 13 7 15 -31 13 -24
-1 -61 -3 -81 -5z"/>
<path d="M608 363 c7 -3 16 -2 19 1 4 3 -2 6 -13 5 -11 0 -14 -3 -6 -6z"/>
<path d="M708 363 c7 -3 16 -2 19 1 4 3 -2 6 -13 5 -11 0 -14 -3 -6 -6z"/>
<path d="M500 339 c0 -11 5 -17 10 -14 6 3 10 13 10 21 0 8 -4 14 -10 14 -5 0
-10 -9 -10 -21z"/>
<path d="M710 330 c0 -5 5 -10 10 -10 6 0 10 5 10 10 0 6 -4 10 -10 10 -5 0
-10 -4 -10 -10z"/>
<path d="M585 250 c-3 -5 -1 -10 4 -10 6 0 11 5 11 10 0 6 -2 10 -4 10 -3 0
-8 -4 -11 -10z"/>
<path d="M840 249 c0 -5 5 -7 10 -4 6 3 10 8 10 11 0 2 -4 4 -10 4 -5 0 -10
-5 -10 -11z"/>
</g>
</svg>
